<svg width="241" height="224" viewBox="0 0 241 224" fill="none" xmlns="http://www.w3.org/2000/svg">
<g opacity="0.9" clip-path="url(#clip0_26_3361)">
<path d="M155.175 95.1075V119.388L129.335 126.248L104.063 132.95L94.1381 126.041L78.8004 115.38L72.7363 111.157L49.4534 94.967L24.6855 77.7356L17.8871 73.0083L13.4235 69.9009L0 60.5703V36.2893L13.4235 45.6199L25.23 53.8348L43.1583 66.3058L49.9484 71.0331L74.7164 88.2562L98.0075 104.455L104.063 108.669L155.175 95.1075Z" fill="#306B64"/>
<path d="M240.807 72.3801L227.499 75.9091L194.67 84.6281L194.588 84.5702L188.606 80.4049L165.323 64.2149L155.175 57.157L140.555 46.9917L133.757 42.2562L104.063 50.1405L94.5588 52.6611L101.357 57.3884L104.063 59.2644L126.125 74.6115L149.416 90.8099L155.175 94.8182V95.1074L104.063 108.669L98.0075 104.455L74.7164 88.2562L49.9484 71.033L43.1583 66.3058L25.23 53.8347L13.4235 45.6198L0 36.2892V36.2479L13.4235 32.6859L51.3675 22.6198L90.5573 12.2149L104.063 8.63636L136.595 0L155.175 12.9008L161.883 17.5702L179.836 30.0331L186.634 34.7603L194.588 40.2727L211.435 51.9752L227.499 63.1405L234.743 68.1653L240.807 72.3801Z" fill="#20514C"/>
<path d="M155.175 143.141L194.588 132.686V84.6448L194.67 84.6283L227.499 75.9093L240.807 72.3804L240.922 72.4547V144.19L230.238 147.025L227.499 147.744L218.613 150.108L194.588 156.488L178.813 160.67L155.175 166.942L153.558 167.38H153.55L128.831 173.934L104.063 180.513L79.2954 163.281L54.577 146.083L44.6516 139.182L29.3057 128.513L23.2499 124.298L13.4235 117.463L0 108.124V84.3225L13.4235 93.6614L24.735 101.529L48.0096 117.719L54.0737 121.942L69.4196 132.603L79.3449 139.513L104.063 156.711L128.79 150.149L154.053 143.438" fill="#306B64"/>
<path d="M240.922 166.562V187.132L227.499 190.686L223.497 191.752L198.234 198.454L194.588 199.429L173.516 205.016L155.175 209.884L148.748 211.586L125.465 217.768L104.063 223.446L82.6616 208.562L59.3788 192.372L34.6108 175.14L13.4235 160.396L9.89233 157.95L0 151.066V130.496L6.03111 134.694L13.4235 139.834L21.3688 145.363L31.2941 152.264L56.0126 169.463L80.7805 186.686L104.063 202.884L127.346 196.71L152.114 190.132L155.175 189.322L176.833 183.57L194.588 178.859L202.104 176.859L227.499 170.124L240.922 166.562Z" fill="#5F8F89"/>
<path d="M240.922 165.62V166.562L227.499 170.124L202.104 176.86L194.588 178.86L176.833 183.57L155.175 189.322L152.114 190.132L127.346 196.711L104.063 202.884L80.7805 186.686L56.0126 169.463L31.2941 152.265L21.3688 145.364L13.4235 139.835L6.03111 134.694L0 130.496V130.463L13.4235 126.909V117.463L23.2499 124.298L29.3057 128.512L44.6516 139.182L54.577 146.083L79.2954 163.281L104.063 180.512L128.831 173.934L153.55 167.38H153.558L155.175 166.942L178.813 160.669L194.588 156.488L218.613 150.108L227.499 147.744V156.298L240.493 165.322L240.922 165.62Z" fill="#E6F1EF"/>
<path d="M194.588 84.5702V132.686L155.175 143.14L154.053 143.438L128.79 150.149L104.063 156.711L79.3449 139.512L69.4196 132.603L54.0737 121.942L48.0096 117.719L24.735 101.529L13.4235 93.6611L0 84.3222V84.2892L13.4235 80.7272V69.9007L17.8871 73.0082L24.6855 77.7354L49.4534 94.9668L72.7363 111.157L78.8004 115.38L94.1381 126.041L104.063 132.95L129.335 126.248L155.175 119.388V94.8181L149.416 90.8098L126.125 74.6115L104.063 59.2644L101.357 57.3883L94.5588 52.6611L104.063 50.1404L133.757 42.2561L140.555 46.9916L155.175 57.1569L165.323 64.2148L188.606 80.4049L194.588 84.5702Z" fill="#E6F1EF"/>
</g>
<defs>
<clipPath id="clip0_26_3361">
<rect width="240.922" height="223.446" fill="white"/>
</clipPath>
</defs>
</svg>
